<?xml version="1.0" encoding="UTF-8"?>
<svg id="Layer_1" xmlns="http://www.w3.org/2000/svg" version="1.1" viewBox="0 0 652.7 292.3">
  <!-- Generator: Adobe Illustrator 29.1.0, SVG Export Plug-In . SVG Version: 2.1.0 Build 142)  -->
  <defs>
    <style>
      .st0 {
        fill: #fff;
      }
    </style>
  </defs>
  <g>
    <path class="st0" d="M144.9,286.5l99.1-57.3c9.2-5.3,14.9-15.2,14.9-25.8v-101.1c-26.9-12.8-55.7-16.3-82.9-7.9-62.2,19-96.5,93.6-86.8,177.1l25.9,15c9.2,5.3,20.6,5.3,29.8,0Z"/>
    <path class="st0" d="M196.6,35.7l-51.7-29.9c-9.2-5.3-20.6-5.3-29.8,0L16,63.1c-5.5,3.2-9.7,8-12.3,13.6,19.8,7.1,42.2,11.1,65.9,11.1,54.3,0,101.7-21,127-52.1Z"/>
    <path class="st0" d="M1.1,99.5v104c0,10.6,5.7,20.5,14.9,25.8l45.9,26.5c3.4-12.1,5.3-24.8,5.3-38,0-50-26.4-93.8-66-118.3Z"/>
  </g>
  <path class="st0" d="M629.3,75.7c-10.7,0-18.2-7-18.2-17.5s7.4-17.5,18.2-17.5,18.2,7,18.2,17.5-7.2,17.5-18.2,17.5ZM611.3,208.9c-1.9,0-3-.9-3-2.6s.9-2.6,2.1-3.5c1.6-1.6,3.3-3.5,3.3-7.5v-91c0-3.5-1.6-5.4-3.3-7-1.4-1.6-2.3-2.8-2.3-4.2s1.4-3,3.3-3h26.3c5.3,0,8.6,3.3,8.6,8.8v96.4c0,4,1.6,5.8,3.5,7.5.9.9,1.9,2.1,1.9,3.5s-.9,2.6-2.8,2.6h-37.5Z"/>
  <path class="st0" d="M467.9,250.8c-1.9,0-3-.9-3-2.6s.9-2.6,2.1-3.5c1.6-1.6,3.3-3.5,3.3-7.5V104.4c0-3.5-1.6-5.4-3.3-7-1.4-1.6-2.3-2.8-2.3-4.2s1.4-3,3.3-3h26.3c5.3,0,8.6,3.3,8.6,8.8v11.4c8.9-14.7,21.7-22.6,36.8-22.6,29.6,0,48.9,24.2,48.9,60.5s-21,62.9-52.8,62.9-25.4-5.4-32.8-14.4v40.5c0,4,1.6,5.8,3.5,7.5.9.9,1.9,2.1,1.9,3.5s-.9,2.6-2.8,2.6h-37.5ZM523.5,101.6c-9.1,0-16.5,5.4-20.7,14.7v57c5.1,18.9,14.9,34.9,28.6,34.9s24.7-19.8,24.7-44.5-11.2-62.2-32.6-62.2Z"/>
  <path class="st0" d="M396.6,211.2c-36.1,0-60.5-24.2-60.5-61.7s24.4-61.7,61.5-61.7,46.6,13.5,46.6,32.8-28.9,33.8-73.1,34.7c4.9,20,17.2,37.9,38.9,37.9s28.2-10.7,31.4-15.1c1.6-1.9,2.3-2.6,3-2.6s1.6.7,1.6,3.5c0,13.3-17.2,32.1-49.4,32.1ZM368.4,134.4c0,6.1.7,12.3,2.1,18.4,32.4-1.4,43.8-13.3,43.8-32.4s-7.7-30-19.5-30-26.3,20.5-26.3,44Z"/>
</svg>